# xmcd
#
# Track frame offsets:
#	150
#	16147
#	44867
#	62409
#	90437
#	122313
#	153359
#	169891
#	188169
#	204287
#	236100
#	259850
#	287890
#	305311
#	323547
#
# Disc length: 4556
#
# Revision: 1
# Processed by: cddbd v1.5.1PL0 Copyright (c) Steve Scherf et al.
# Submitted via: dBpowerAMP V4.0
# Normalized: r0:DSETVAR1,TDELIM( - )
#
DISCID=c211ca0f
DTITLE=Various Artist - Royal Funk Volume 2 CD2
DYEAR=2001
DGENRE=Funk
TTITLE0=Earth Wind and Fire - September
TTITLE1=Change - A Lover's Holidays
TTITLE2=Imagination - Just An Illusion
TTITLE3=Shalamar - Make That Move
TTITLE4=Blue Feather - Let's Funk Tonight
TTITLE5=Nick Stacker Band - Straight Ahead
TTITLE6=Evelyn "Champagne" King - Love Come Down
TTITLE7=Lakeside - Fantastic Voyage
TTITLE8=Eruption - I can't Stand The Rain
TTITLE9=Jimmy Ross - First True Love Affair
TTITLE10=Dinasty - I Don't Wanna Be A Freak
TTITLE11=New Jersey Connection - Love Don't Come Easy
TTITLE12=France Joli - Gonna Get Over You
TTITLE13=D-Train - Keep On
TTITLE14=Billy Ocean - Carribean Queen
EXTD=by PAF
EXTT0=
EXTT1=
EXTT2=
EXTT3=
EXTT4=
EXTT5=
EXTT6=
EXTT7=
EXTT8=
EXTT9=
EXTT10=
EXTT11=
EXTT12=
EXTT13=
EXTT14=
PLAYORDER=
